PathFileType	3	(X/Y/Z)	uphill_walking_calibrated.trc																																																																												
DataRate	CameraRate	NumFrames	NumMarkers	Units	OrigDataRate	OrigDataStartFrame	OrigNumFrames																																																																								
100	100	7	26	mm	100	2839	556																																																																								
Frame#	Time	RAcromium			LAcromium			C7			Clavicle			VSacral			RASIS			LASIS			RHip			LHip			RKneeLat			RKneeMed			LKneeMed			LKneeLat			LShankFront			RShankFront			RAnkleLat			RAnkleMed			LAnkleMed			LAnkleLat			LToeLat			LToeTip			RToeTip			RToeLat			RHeel			LHeel			T10		
		X1	Y1	Z1	X2	Y2	Z2	X3	Y3	Z3	X4	Y4	Z4	X5	Y5	Z5	X6	Y6	Z6	X7	Y7	Z7	X8	Y8	Z8	X9	Y9	Z9	X10	Y10	Z10	X11	Y11	Z11	X12	Y12	Z12	X13	Y13	Z13	X14	Y14	Z14	X15	Y15	Z15	X16	Y16	Z16	X17	Y17	Z17	X18	Y18	Z18	X19	Y19	Z19	X20	Y20	Z20	X21	Y21	Z21	X22	Y22	Z22	X23	Y23	Z23	X24	Y24	Z24	X25	Y25	Z25	X26	Y26	Z26
2839	28.38	1167.3942	1358.288	-470.08075	1131.6387	1371.1301	-727.92645	1122.7283	1423.7839	-591.55267	1172.9264	1230.6205	-613.89905	767.05579	1022.575	-555.53687	936.34106	951.18036	-436.21289	937.01892	963.03607	-699.74341	840.3327	893.89038	-395.7215	862.88147	911.70807	-773.10193	660.11713	473.5881	-451.2413	638.65222	482.4592	-582.52197	1095.0438	534.26801	-593.15784	1113.0503	546.10815	-714.2804	1145.9596	450.16367	-663.53345	661.75104	380.13394	-509.38721	390.18173	102.72591	-491.40417	416.13724	108.26991	-575.78888	979.48749	118.56756	-616.33795	956.75708	94.162071	-698.26532	1111.3702	55.402386	-726.67664	1172.8915	75.19384	-654.28217	592.16943	34.276672	-515.9657	517.0448	34.76746	-444.45792	294.77502	36.038624	-536.92963	883.15491	18.340029	-655.14636	892.30432	1201.8904	-558.47833
2840	28.39	1167.2239	1356.1726	-471.16663	1130.7833	1369.2494	-729.5116	1122.0758	1421.6088	-592.4632	1172.6989	1228.4989	-614.96979	768.05493	1019.7718	-556.39496	936.78217	946.98022	-437.16071	938.30194	960.78687	-700.13177	839.94104	890.2478	-397.00552	864.78101	909.90466	-773.46167	656.87408	471.43515	-453.30151	637.05969	479.71814	-584.815	1092.6234	529.55688	-593.35718	1111.2693	541.58356	-714.06262	1143.2021	444.82883	-662.88855	656.70972	378.39713	-509.92059	381.63214	104.74898	-492.48749	407.94171	109.48494	-576.72333	972.35669	115.51499	-616.12549	949.88129	91.104172	-698.16168	1103.9807	51.40799	-725.75824	1165.517	71.081116	-653.09583	582.56659	33.665115	-515.95209	506.87616	34.820869	-444.91895	285.15671	39.556847	-537.95386	875.49512	15.933519	-655.51947	892.53107	1198.8723	-558.28583
2841	28.4	1167.2847	1354.3942	-472.21304	1130.1049	1367.3844	-730.48816	1121.7189	1419.6034	-593.55676	1172.6919	1226.7155	-616.13263	769.29584	1017.0662	-557.34247	937.42126	943.00494	-438.33054	939.82886	958.77924	-701.27289	840.38416	886.05353	-398.36777	867.06372	908.0069	-773.85577	654.42688	469.25055	-455.55521	636.039	477.17349	-586.97827	1089.6792	524.34253	-593.4314	1108.8893	536.46887	-713.81183	1137.6613	438.96118	-662.86359	654.60248	375.74225	-511.71036	373.39001	107.12118	-493.28238	400.08099	111.24559	-577.57019	963.45947	112.42188	-615.49341	940.57422	89.168907	-697.80267	1094.7375	47.038658	-725.08362	1156.0726	65.081604	-652.07031	572.96625	32.933929	-516.04218	496.65329	34.825066	-445.20779	275.8826	43.60643	-538.84076	864.85419	14.877174	-655.5108	893.07336	1195.9132	-558.09814
2842	28.41	1167.5836	1352.8933	-473.34332	1129.4561	1365.5625	-731.04395	1121.5261	1417.8341	-594.59479	1172.9467	1225.2161	-617.29541	770.73395	1014.571	-558.50128	938.57806	939.49731	-439.32397	941.77399	956.90167	-702.05646	840.80829	882.77795	-399.78131	869.58313	905.94629	-774.41663	652.81085	467.1008	-457.71985	635.39301	474.9552	-588.89777	1086.5353	518.6922	-593.42694	1106.4755	530.79114	-713.84241	1133.329	432.37885	-662.11841	652.16241	373.52463	-513.30249	365.52859	110.02579	-493.82675	392.573	113.44068	-578.03046	952.49591	110.72758	-613.97345	928.97656	87.422539	-696.86292	1083.5558	45.464046	-724.34381	1145.2531	62.341713	-651.8313	563.466	32.091087	-516.34009	486.47495	34.944691	-445.52505	266.83441	48.509239	-539.64398	853.82178	13.026543	-655.29413	893.76764	1193.2467	-557.91254
2843	28.42	1168.1641	1351.5809	-474.46738	1129.296	1364.5223	-732.60571	1121.8887	1416.1713	-595.71936	1173.4874	1224.0066	-618.48627	772.25513	1012.3781	-559.86682	939.82428	936.49915	-440.52679	943.40179	955.54407	-702.81348	841.685	879.86865	-401.39233	872.17999	903.73596	-775.01178	652.23993	465.02133	-459.50003	635.59058	472.69083	-590.41699	1083.7753	513.07745	-593.4989	1104.5199	525.24548	-713.72229	1128.4054	426.41895	-661.68805	650.39294	371.27637	-514.59387	358.07648	113.42918	-494.04175	385.46872	116.26228	-578.12524	940.71606	109.60741	-612.86011	917.47351	86.963181	-696.22705	1071.9399	45.716862	-724.28882	1133.7205	63.654392	-652.30927	553.94708	31.514671	-516.672	476.52542	34.907486	-445.54941	258.14667	54.330311	-540.18939	842.71057	11.918528	-654.94775	894.81879	1190.8052	-558.02246
2844	28.43	1169.0933	1350.3888	-475.55444	1129.2711	1363.5874	-733.69055	1122.0964	1415.2042	-596.50427	1174.2764	1223.0889	-619.69684	773.90033	1010.5607	-561.51459	941.25427	933.87665	-442.04541	945.50549	954.41986	-703.81799	843.04211	877.24805	-403.08206	874.81995	901.42639	-775.64874	652.70166	463.18875	-460.75983	636.3266	470.46719	-591.80066	1081.4011	508.12573	-593.5979	1102.8534	520.138	-713.32861	1124.4847	421.09567	-660.9552	649.61023	369.13452	-515.82007	351.1727	117.32352	-493.79294	378.88422	119.55035	-577.78766	930.60895	109.14766	-612.06531	905.59814	88.195717	-694.95752	1060.0861	44.931767	-725.70081	1122.9175	62.211452	-653.67285	544.37054	30.845089	-516.90759	466.29453	35.214157	-445.2168	249.99399	60.847973	-540.42908	831.95569	11.983119	-654.44299	896.01562	1188.734	-558.26361
2845	28.44	1170.2014	1349.4905	-476.66586	1129.3995	1362.7563	-734.31464	1122.8054	1414.3129	-597.45789	1175.2994	1222.5283	-621.05688	775.69519	1009.1796	-563.25354	942.99945	931.90131	-443.66681	947.43884	953.06146	-705.39154	844.67157	875.15637	-404.8902	877.27808	899.47705	-776.4458	654.01019	461.40863	-461.84897	637.81104	468.2283	-592.70703	1078.9211	504.19693	-593.84283	1100.9567	515.84772	-712.83893	1120.6608	416.37384	-659.94922	649.63135	367.05652	-516.62671	345.00937	121.74004	-493.20377	373.02203	123.32423	-576.99933	922.11963	108.02011	-611.72119	896.53522	87.93454	-694.78473	1050.3296	42.092777	-726.4234	1113.5129	57.839272	-654.89001	534.8338	30.41555	-517.21503	456.3118	35.122185	-444.66788	242.22252	68.892609	-540.44257	821.77936	12.780045	-654.32819	897.30811	1187.1508	-558.67773
